<svg width="15" height="15" viewBox="0 0 15 15" fill="none" xmlns="http://www.w3.org/2000/svg">
<path d="M7.88883 1.36686C9.56062 1.2979 10.8051 2.11394 11.9513 3.19957C12.687 3.88119 13.2503 4.72778 13.5949 5.66964C13.7217 6.03935 13.7835 6.42821 13.7777 6.81901C13.7735 8.40617 13.482 9.92854 12.5197 11.2451C11.7193 12.3349 10.594 12.9461 9.29313 13.1687C7.61193 13.4571 5.94954 13.3244 4.39059 12.5627C3.47006 12.1134 2.84627 11.3485 2.4628 10.4311C2.09814 9.55866 1.75751 8.65485 1.57884 7.73222C1.2821 6.19626 1.70214 4.82016 2.79716 3.65722C3.77934 2.61235 4.93811 1.88094 6.33197 1.55494C6.8356 1.43582 7.36848 1.42642 7.88883 1.36686ZM7.83867 12.8176C8.20026 12.8109 8.56125 12.7851 8.92011 12.7403C10.3119 12.5156 11.5093 11.942 12.2971 10.7143C12.9439 9.70599 13.2375 8.59633 13.2992 7.39577C13.3556 6.37284 13.1592 5.4544 12.526 4.65925C12.1026 4.12688 11.642 3.62513 11.1478 3.15777C9.78945 1.87467 8.15631 1.59046 6.38734 1.99901C4.90049 2.34173 3.70829 3.19643 2.7909 4.38445C2.46919 4.79515 2.23268 5.26593 2.09525 5.7692C1.95781 6.27247 1.92221 6.79811 1.99052 7.31532C2.12113 8.41035 2.52863 9.41865 2.99882 10.3946C3.35095 11.126 3.87025 11.7529 4.62987 12.1259C5.58906 12.5992 6.61199 12.7967 7.83867 12.8176Z" fill="black"/>
<path d="M12.5782 7.00407C12.7161 9.1377 10.8113 11.473 8.802 11.9526C6.83972 12.4196 4.49817 11.7373 3.493 9.52639C3.08968 8.63825 2.80756 7.7219 2.8807 6.7324C2.95698 5.67917 3.42926 4.81611 4.21082 4.12022C4.9088 3.50061 5.63394 2.90503 6.59105 2.74308C8.18866 2.47246 9.64312 2.7995 10.9388 3.80571C11.7203 4.41383 12.2793 5.15569 12.4904 6.12951C12.5372 6.419 12.5665 6.71105 12.5782 7.00407ZM12.0923 7.06676C12.1675 5.99368 11.7381 5.2257 11.1519 4.64788C10.0924 3.59778 8.81454 2.99071 7.27544 3.19969C6.69658 3.27805 6.06129 3.17879 5.56184 3.61764C5.11255 4.01364 4.60683 4.35636 4.20351 4.79625C3.58286 5.4796 3.21506 6.3155 3.36761 7.24857C3.47492 7.95857 3.67626 8.65114 3.96633 9.30801C4.81894 11.1762 6.52104 11.8042 8.32344 11.5409C10.4289 11.2368 12.2166 9.03739 12.0923 7.06676Z" fill="black"/>
<path d="M8.94007 6.23597L8.15224 5.76578C8.15224 6.13148 8.14179 6.41987 8.15956 6.70616C8.17967 6.79593 8.23164 6.87537 8.30583 6.92976C8.41486 7.008 8.52785 7.08054 8.64437 7.1471C9.51475 7.72491 9.44266 8.80009 8.48451 9.2661C8.26509 9.37059 8.20239 9.49179 8.20971 9.70808C8.22594 9.93968 8.22069 10.1723 8.19403 10.4029C8.1794 10.5074 8.0582 10.592 7.98506 10.6861C7.8952 10.6046 7.73951 10.5304 7.72906 10.4395C7.69754 10.1738 7.7 9.90521 7.73638 9.64016C7.76459 9.43119 7.68309 9.37894 7.52009 9.29431C7.14457 9.10199 6.78349 8.88269 6.43969 8.63813C6.35715 8.57857 6.38432 8.36751 6.36133 8.22645C6.50134 8.25571 6.66121 8.25048 6.77928 8.3184C7.06766 8.48767 7.3362 8.69037 7.67578 8.92338C7.67578 8.34034 7.68414 7.85866 7.66742 7.37801C7.66742 7.2986 7.56293 7.20874 7.48352 7.15128C7.37903 7.07291 7.2338 7.03947 7.13349 6.95484C6.82003 6.68735 6.5703 6.36867 6.63718 5.92146C6.70405 5.47426 7.05512 5.32379 7.43755 5.22767C7.5086 5.2099 7.57651 5.18483 7.66637 5.15557C7.69563 4.97794 7.71339 4.78568 7.76145 4.5997C7.78131 4.52133 7.86072 4.45655 7.91401 4.3855C7.98401 4.44401 8.12299 4.51297 8.11358 4.55999C8.02686 5.1284 8.38002 5.39589 8.79275 5.66442C8.92545 5.7501 8.97246 5.96744 9.05814 6.12417L8.94007 6.23597ZM8.20866 8.88368C8.59735 8.64649 8.83559 8.36124 8.7708 8.01852C8.73319 7.80955 8.44376 7.64132 8.20866 7.3916V8.88368ZM7.67473 5.71144L7.57025 5.61845C7.41456 5.75742 7.13349 5.89638 7.13244 6.0364C7.13244 6.31747 7.31007 6.57033 7.67264 6.63406L7.67473 5.71144Z" fill="black"/>
</svg>
