
<svg width="16" height="16" viewBox="0 0 16 16" fill="none" xmlns="http://www.w3.org/2000/svg">
<path d="M7.27991 14.9983C6.35957 14.126 5.71066 13.02 5.07816 11.9091C4.60347 11.0733 4.17297 10.2123 3.7311 9.35761C2.91302 7.77321 2.81707 6.10294 3.26651 4.41375C3.42764 3.84207 3.71108 3.31225 4.09722 2.86093C5.16401 1.61487 6.55399 0.967193 8.20783 1.00128C8.7112 1.00189 9.20808 1.11491 9.6622 1.33206C11.7314 2.42663 13.2628 4.51728 12.5495 7.23539C12.1518 8.75036 11.5837 10.1984 10.6154 11.4533C9.83263 12.4683 9.04022 13.4754 8.23813 14.4744C8.00836 14.7572 7.74576 15.0236 7.27991 14.9983ZM7.53872 14.2535C8.64212 13.2271 9.37183 12.0555 10.1899 10.9521C11.1077 9.70983 11.6228 8.30091 11.9763 6.81498C12.1581 6.04992 12.2149 5.25836 11.8501 4.52234C11.3451 3.47953 10.6873 2.54655 9.67735 1.92289C8.95017 1.47219 8.18637 1.22852 7.33167 1.56939C6.82668 1.77391 6.27877 1.90523 5.79903 2.16025C4.59463 2.80285 3.84725 3.7901 3.68313 5.18134C3.519 6.57259 3.68313 7.9209 4.3737 9.17706C4.79158 9.94086 5.16022 10.7324 5.59704 11.4849C6.14747 12.4292 6.65625 13.4102 7.53872 14.251V14.2535Z" fill="black"/>
<path d="M8.28495 8.21504C7.10707 8.17338 6.34074 8.01809 5.93549 7.23157C5.48731 6.3592 5.52013 5.478 6.09203 4.64729C6.5743 3.94661 7.23584 3.63098 8.08296 3.71936C8.93008 3.80773 9.53859 4.22436 9.87819 4.99573C10.1572 5.63328 10.3377 6.30364 10.0145 6.97275C9.5954 7.83881 8.87579 8.24029 8.28495 8.21504ZM8.00847 7.59644C8.85812 7.57624 9.58151 6.93235 9.59792 6.18371C9.62191 5.06389 8.8215 4.27992 7.68528 4.31022C7.46893 4.31155 7.25523 4.35786 7.05774 4.4462C6.86025 4.53455 6.68329 4.66298 6.53809 4.82337C6.3929 4.98376 6.28265 5.17258 6.21433 5.37786C6.14602 5.58314 6.12114 5.80041 6.14127 6.01582C6.2145 7.04474 6.90254 7.62295 8.00847 7.59644Z" fill="black"/>
</svg>
